<svg width="32" height="32" viewBox="0 0 32 32" fill="none" xmlns="http://www.w3.org/2000/svg">
<path d="M15 7.9375C14.375 7.375 13.4375 7.375 12.875 7.9375C12.25 8.5625 12.25 9.5 12.875 10.0625L18.875 16L12.9375 22C12.3125 22.5625 12.3125 23.5 12.9375 24.0625C13.5 24.6875 14.4375 24.6875 15.0625 24.0625L22.0625 17.0625C22.3125 16.8125 22.5 16.4375 22.5 16C22.5 15.625 22.3125 15.25 22 15L15 7.9375ZM16 0C7.125 0 0 7.1875 0 16C0 24.875 7.125 32 16 32C24.8125 32 32 24.875 32 16C32 7.1875 24.8125 0 16 0ZM16 29C8.8125 29 3 23.1875 3 16C3 8.875 8.8125 3 16 3C23.125 3 29 8.875 29 16C29 23.1875 23.125 29 16 29Z" fill="white"/>
</svg>
